<svg width="32" height="32" viewBox="0 0 32 32" fill="none" xmlns="http://www.w3.org/2000/svg">
<path fill-rule="evenodd" clip-rule="evenodd" d="M17 5.33325C17 4.78097 16.5523 4.33325 16 4.33325C15.4477 4.33325 15 4.78097 15 5.33325V14.9999H5.33331C4.78103 14.9999 4.33331 15.4476 4.33331 15.9999C4.33331 16.5522 4.78103 16.9999 5.33331 16.9999H15V26.6666C15 27.2189 15.4477 27.6666 16 27.6666C16.5523 27.6666 17 27.2189 17 26.6666V16.9999H26.6666C27.2189 16.9999 27.6666 16.5522 27.6666 15.9999C27.6666 15.4476 27.2189 14.9999 26.6666 14.9999H17V5.33325Z" fill="white"/>
</svg>
