<svg width="20" height="20" viewBox="0 0 20 20" fill="none" xmlns="http://www.w3.org/2000/svg">
<path fill-rule="evenodd" clip-rule="evenodd" d="M3.95898 9.99967C3.95898 6.66295 6.66393 3.95801 10.0007 3.95801C13.3374 3.95801 16.0423 6.66295 16.0423 9.99967C16.0423 13.3364 13.3374 16.0413 10.0007 16.0413C6.66393 16.0413 3.95898 13.3364 3.95898 9.99967ZM10.0007 2.70801C5.97357 2.70801 2.70898 5.9726 2.70898 9.99967C2.70898 14.0268 5.97357 17.2913 10.0007 17.2913C14.0277 17.2913 17.2923 14.0268 17.2923 9.99967C17.2923 5.9726 14.0277 2.70801 10.0007 2.70801ZM10.626 5.83301C10.626 5.48783 10.3462 5.20801 10.001 5.20801C9.6558 5.20801 9.37598 5.48783 9.37598 5.83301V9.99967C9.37598 10.1964 9.4686 10.3816 9.62598 10.4997L12.9593 12.9997C13.2355 13.2068 13.6272 13.1508 13.8343 12.8747C14.0414 12.5985 13.9855 12.2068 13.7093 11.9997L10.626 9.68717V5.83301Z" fill="#A6ABAF"/>
</svg>
