<svg width="28" height="28" viewBox="0 0 28 28" fill="none" xmlns="http://www.w3.org/2000/svg">
<path d="M24.5 14C24.5 19.799 19.799 24.5 14 24.5C8.20101 24.5 3.5 19.799 3.5 14C3.5 8.20101 8.20101 3.5 14 3.5C19.799 3.5 24.5 8.20101 24.5 14Z" fill="#F5F6F7"/>
<path d="M24.0625 14C24.0625 19.5574 19.5574 24.0625 14 24.0625V24.9375C20.0406 24.9375 24.9375 20.0406 24.9375 14H24.0625ZM14 24.0625C8.44263 24.0625 3.9375 19.5574 3.9375 14H3.0625C3.0625 20.0406 7.95939 24.9375 14 24.9375V24.0625ZM3.9375 14C3.9375 8.44263 8.44263 3.9375 14 3.9375V3.0625C7.95939 3.0625 3.0625 7.95939 3.0625 14H3.9375ZM14 3.9375C19.5574 3.9375 24.0625 8.44263 24.0625 14H24.9375C24.9375 7.95939 20.0406 3.0625 14 3.0625V3.9375Z" fill="#E0E5EA"/>
</svg>
