<svg width="28" height="28" viewBox="0 0 28 28" fill="none" xmlns="http://www.w3.org/2000/svg">
<path fill-rule="evenodd" clip-rule="evenodd" d="M14 24.5C19.799 24.5 24.5 19.799 24.5 14C24.5 8.20101 19.799 3.5 14 3.5C8.20101 3.5 3.5 8.20101 3.5 14C3.5 19.799 8.20101 24.5 14 24.5ZM19.5629 11.2469C19.9753 10.7519 19.9085 10.0162 19.4135 9.60374C18.9185 9.19125 18.1828 9.25813 17.7703 9.75312L13.5727 14.7903C13.1682 15.2757 12.9408 15.5444 12.7593 15.7095L12.7523 15.7158L12.7449 15.7102C12.5491 15.5622 12.2983 15.3151 11.8515 14.8683L10.1582 13.175C9.70261 12.7194 8.96392 12.7194 8.5083 13.175C8.05269 13.6307 8.05269 14.3693 8.5083 14.825L10.2016 16.5182L10.2492 16.5659C10.6301 16.9469 10.9966 17.3135 11.3375 17.5713C11.7194 17.8601 12.2196 18.1317 12.8606 18.1026C13.5016 18.0735 13.9751 17.7578 14.3293 17.4356C14.6455 17.148 14.9773 16.7498 15.3221 16.3358L15.3652 16.284L19.5629 11.2469Z" fill="#00CC51"/>
</svg>
