<svg width="20" height="20" viewBox="0 0 20 20" fill="none" xmlns="http://www.w3.org/2000/svg">
<path fill-rule="evenodd" clip-rule="evenodd" d="M12.5995 9.34209C12.3511 9.58169 12.3439 9.97735 12.5835 10.2258C12.8231 10.4743 13.2187 10.4815 13.4672 10.2419L16.0598 7.7419C16.182 7.6241 16.251 7.46169 16.251 7.29199C16.251 7.12229 16.182 6.95989 16.0598 6.84209L13.4672 4.34209C13.2187 4.10249 12.8231 4.10968 12.5835 4.35816C12.3439 4.60663 12.3511 5.00229 12.5995 5.2419L14.0774 6.66699H8.33431H5.23535H4.30111H4.04761H3.98174H3.96496H3.96073H3.95966H3.9594L3.95931 7.29199L3.95931 6.66699C3.61413 6.66699 3.33431 6.94682 3.33431 7.29199C3.33431 7.63717 3.61413 7.91699 3.95931 7.91699L3.95931 7.29199L3.9594 7.91699H3.95966H3.96073H3.96496H3.98174H4.04761H4.30111H5.23535H8.33431H14.0774L12.5995 9.34209ZM6.98541 15.1754C7.23389 15.415 7.24108 15.8107 7.00148 16.0592C6.76188 16.3076 6.36622 16.3148 6.11774 16.0752L3.52515 13.5752C3.40299 13.4574 3.33398 13.295 3.33398 13.1253C3.33398 12.9556 3.40299 12.7932 3.52515 12.6754L6.11774 10.1754C6.36622 9.93582 6.76188 9.94302 7.00148 10.1915C7.24108 10.44 7.23389 10.8356 6.98541 11.0752L5.50753 12.5003H11.2507H14.3496H15.2839H15.5374H15.6032H15.62H15.6242H15.6253H15.6256L15.6257 13.1253L15.6256 13.7503H15.6253H15.6242H15.62H15.6032H15.5374H15.2839H14.3496H11.2507H5.50753L6.98541 15.1754ZM15.6257 13.1253V13.7503C15.9708 13.7503 16.2507 13.4705 16.2507 13.1253C16.2507 12.7801 15.9708 12.5003 15.6257 12.5003V13.1253Z" fill="#494F54"/>
</svg>
